<svg width="181" height="29" viewBox="0 0 181 29" fill="none" xmlns="http://www.w3.org/2000/svg">
<path d="M11.23 6.368L12.364 8.174L2.48 14.236L12.364 20.354L11.104 22.076L0.464 15.426V13.018L11.23 6.368ZM18.5831 23V3.722H21.0191V20.83H29.8111L29.5311 23H18.5831ZM40.9861 7.95C42.2928 7.95 43.3335 8.26733 44.1081 8.902C44.8921 9.53667 45.4568 10.4327 45.8021 11.59C46.1475 12.738 46.3201 14.082 46.3201 15.622C46.3201 17.106 46.1101 18.4313 45.6901 19.598C45.2795 20.7553 44.6541 21.6653 43.8141 22.328C42.9741 22.9907 41.9148 23.322 40.6361 23.322C39.0215 23.322 37.7241 22.7527 36.7441 21.614V28.642L34.3921 28.936V8.258H36.3941L36.5901 10.316C37.1315 9.56 37.7755 8.97667 38.5221 8.566C39.2781 8.15533 40.0995 7.95 40.9861 7.95ZM40.4261 9.84C39.6141 9.84 38.8955 10.0873 38.2701 10.582C37.6541 11.0673 37.1455 11.6087 36.7441 12.206V19.514C37.1268 20.0833 37.6075 20.536 38.1861 20.872C38.7741 21.1987 39.4181 21.362 40.1181 21.362C41.3408 21.362 42.2601 20.8953 42.8761 19.962C43.4921 19.0287 43.8001 17.5773 43.8001 15.608C43.8001 14.32 43.6788 13.2513 43.4361 12.402C43.1935 11.5433 42.8248 10.904 42.3301 10.484C41.8355 10.0547 41.2008 9.84 40.4261 9.84ZM53.5332 10.176C54.0745 9.46667 54.6952 8.92067 55.3952 8.538C56.1045 8.146 56.8839 7.95 57.7332 7.95C59.0492 7.95 60.1132 8.26733 60.9252 8.902C61.7372 9.53667 62.3299 10.4327 62.7032 11.59C63.0765 12.738 63.2632 14.082 63.2632 15.622C63.2632 17.106 63.0392 18.4313 62.5912 19.598C62.1432 20.7553 61.4852 21.6653 60.6172 22.328C59.7585 22.9907 58.6945 23.322 57.4252 23.322C55.7172 23.322 54.3779 22.706 53.4072 21.474L53.2392 23H51.1812V2.322L53.5332 2.028V10.176ZM56.8652 21.418C58.0972 21.418 59.0445 20.942 59.7072 19.99C60.3699 19.038 60.7012 17.5773 60.7012 15.608C60.7012 14.32 60.5705 13.2513 60.3092 12.402C60.0479 11.5433 59.6559 10.904 59.1332 10.484C58.6199 10.0547 57.9852 9.84 57.2292 9.84C56.4079 9.84 55.6845 10.0873 55.0592 10.582C54.4432 11.0673 53.9345 11.6087 53.5332 12.206V19.514C53.9159 20.0927 54.3965 20.5547 54.9752 20.9C55.5632 21.2453 56.1932 21.418 56.8652 21.418ZM71.0783 20.844C71.0783 20.3867 71.1856 19.976 71.4003 19.612C71.6149 19.2387 71.9043 18.9447 72.2683 18.73C72.6416 18.506 73.0616 18.394 73.5283 18.394C74.0043 18.394 74.4289 18.506 74.8023 18.73C75.1756 18.9447 75.4696 19.2387 75.6843 19.612C75.8989 19.976 76.0063 20.3867 76.0063 20.844C76.0063 21.3013 75.8989 21.7213 75.6843 22.104C75.4696 22.4773 75.1756 22.776 74.8023 23C74.4289 23.2147 74.0043 23.322 73.5283 23.322C73.0616 23.322 72.6416 23.2147 72.2683 23C71.9043 22.776 71.6149 22.4773 71.4003 22.104C71.1856 21.7213 71.0783 21.3013 71.0783 20.844ZM93.5793 2.028L95.9313 2.322V23H93.8733L93.6493 21.054C93.0986 21.838 92.464 22.412 91.7453 22.776C91.036 23.14 90.2753 23.322 89.4633 23.322C88.1846 23.322 87.13 23 86.2993 22.356C85.4686 21.712 84.8526 20.816 84.4513 19.668C84.05 18.5107 83.8493 17.1713 83.8493 15.65C83.8493 14.1753 84.078 12.8593 84.5353 11.702C84.9926 10.5353 85.6506 9.62067 86.5093 8.958C87.3773 8.286 88.418 7.95 89.6313 7.95C90.4806 7.95 91.2273 8.09933 91.8713 8.398C92.5153 8.68733 93.0846 9.11667 93.5793 9.686V2.028ZM90.2473 9.84C89.0153 9.84 88.068 10.3207 87.4053 11.282C86.7426 12.2433 86.4113 13.6993 86.4113 15.65C86.4113 16.9193 86.5466 17.9833 86.8173 18.842C87.088 19.7007 87.4846 20.3447 88.0073 20.774C88.5393 21.2033 89.188 21.418 89.9533 21.418C90.7933 21.418 91.5073 21.18 92.0953 20.704C92.6926 20.228 93.1873 19.6913 93.5793 19.094V11.73C93.178 11.1327 92.6926 10.6707 92.1233 10.344C91.554 10.008 90.9286 9.84 90.2473 9.84ZM103.396 16.462C103.443 17.6007 103.662 18.534 104.054 19.262C104.446 19.9807 104.964 20.5127 105.608 20.858C106.252 21.194 106.952 21.362 107.708 21.362C108.464 21.362 109.146 21.25 109.752 21.026C110.368 20.802 110.998 20.4707 111.642 20.032L112.748 21.586C112.058 22.1273 111.269 22.552 110.382 22.86C109.505 23.168 108.604 23.322 107.68 23.322C106.252 23.322 105.034 23 104.026 22.356C103.018 21.712 102.248 20.816 101.716 19.668C101.194 18.5107 100.932 17.1713 100.932 15.65C100.932 14.1567 101.198 12.8313 101.73 11.674C102.262 10.5167 103.009 9.60667 103.97 8.944C104.932 8.28133 106.066 7.95 107.372 7.95C108.614 7.95 109.682 8.244 110.578 8.832C111.474 9.41067 112.16 10.2413 112.636 11.324C113.122 12.3973 113.364 13.6807 113.364 15.174C113.364 15.426 113.36 15.664 113.35 15.888C113.341 16.1027 113.327 16.294 113.308 16.462H103.396ZM107.4 9.882C106.308 9.882 105.394 10.2693 104.656 11.044C103.928 11.8187 103.513 13.018 103.41 14.642H111.096C111.068 13.0647 110.723 11.8793 110.06 11.086C109.398 10.2833 108.511 9.882 107.4 9.882ZM130.629 8.258L125.267 23H122.537L117.217 8.258H119.709L123.979 20.858L128.193 8.258H130.629ZM165.289 3.764L180.255 13.018V15.426L169.629 22.076L168.355 20.34L178.239 14.236L164.155 5.542L165.289 3.764ZM155.265 25.884L153.361 25.044L165.345 0.333999L167.221 1.258L155.265 25.884Z" fill="white"/>
</svg>
