<svg width="164" height="26" viewBox="0 0 164 26" fill="none" xmlns="http://www.w3.org/2000/svg">
<path d="M11.23 6.368L12.364 8.174L2.48 14.236L12.364 20.354L11.104 22.076L0.464 15.426V13.018L11.23 6.368ZM18.5831 23V3.722H21.0191V20.83H29.8111L29.5311 23H18.5831ZM36.7441 10.176C37.2855 9.46667 37.9061 8.92067 38.6061 8.538C39.3155 8.146 40.0948 7.95 40.9441 7.95C42.2601 7.95 43.3241 8.26733 44.1361 8.902C44.9481 9.53667 45.5408 10.4327 45.9141 11.59C46.2875 12.738 46.4741 14.082 46.4741 15.622C46.4741 17.106 46.2501 18.4313 45.8021 19.598C45.3541 20.7553 44.6961 21.6653 43.8281 22.328C42.9695 22.9907 41.9055 23.322 40.6361 23.322C38.9281 23.322 37.5888 22.706 36.6181 21.474L36.4501 23H34.3921V2.322L36.7441 2.028V10.176ZM40.0761 21.418C41.3081 21.418 42.2555 20.942 42.9181 19.99C43.5808 19.038 43.9121 17.5773 43.9121 15.608C43.9121 14.32 43.7815 13.2513 43.5201 12.402C43.2588 11.5433 42.8668 10.904 42.3441 10.484C41.8308 10.0547 41.1961 9.84 40.4401 9.84C39.6188 9.84 38.8955 10.0873 38.2701 10.582C37.6541 11.0673 37.1455 11.6087 36.7441 12.206V19.514C37.1268 20.0927 37.6075 20.5547 38.1861 20.9C38.7741 21.2453 39.4041 21.418 40.0761 21.418ZM54.2892 20.844C54.2892 20.3867 54.3965 19.976 54.6112 19.612C54.8259 19.2387 55.1152 18.9447 55.4792 18.73C55.8525 18.506 56.2725 18.394 56.7392 18.394C57.2152 18.394 57.6399 18.506 58.0132 18.73C58.3865 18.9447 58.6805 19.2387 58.8952 19.612C59.1099 19.976 59.2172 20.3867 59.2172 20.844C59.2172 21.3013 59.1099 21.7213 58.8952 22.104C58.6805 22.4773 58.3865 22.776 58.0132 23C57.6399 23.2147 57.2152 23.322 56.7392 23.322C56.2725 23.322 55.8525 23.2147 55.4792 23C55.1152 22.776 54.8259 22.4773 54.6112 22.104C54.3965 21.7213 54.2892 21.3013 54.2892 20.844ZM76.7903 2.028L79.1423 2.322V23H77.0843L76.8603 21.054C76.3096 21.838 75.6749 22.412 74.9563 22.776C74.2469 23.14 73.4863 23.322 72.6743 23.322C71.3956 23.322 70.3409 23 69.5103 22.356C68.6796 21.712 68.0636 20.816 67.6623 19.668C67.2609 18.5107 67.0603 17.1713 67.0603 15.65C67.0603 14.1753 67.2889 12.8593 67.7463 11.702C68.2036 10.5353 68.8616 9.62067 69.7203 8.958C70.5883 8.286 71.6289 7.95 72.8423 7.95C73.6916 7.95 74.4383 8.09933 75.0823 8.398C75.7263 8.68733 76.2956 9.11667 76.7903 9.686V2.028ZM73.4583 9.84C72.2263 9.84 71.2789 10.3207 70.6163 11.282C69.9536 12.2433 69.6223 13.6993 69.6223 15.65C69.6223 16.9193 69.7576 17.9833 70.0283 18.842C70.2989 19.7007 70.6956 20.3447 71.2183 20.774C71.7503 21.2033 72.3989 21.418 73.1643 21.418C74.0043 21.418 74.7183 21.18 75.3063 20.704C75.9036 20.228 76.3983 19.6913 76.7903 19.094V11.73C76.3889 11.1327 75.9036 10.6707 75.3343 10.344C74.7649 10.008 74.1396 9.84 73.4583 9.84ZM86.6073 16.462C86.654 17.6007 86.8733 18.534 87.2653 19.262C87.6573 19.9807 88.1753 20.5127 88.8193 20.858C89.4633 21.194 90.1633 21.362 90.9193 21.362C91.6753 21.362 92.3566 21.25 92.9633 21.026C93.5793 20.802 94.2093 20.4707 94.8533 20.032L95.9593 21.586C95.2686 22.1273 94.48 22.552 93.5933 22.86C92.716 23.168 91.8153 23.322 90.8913 23.322C89.4633 23.322 88.2453 23 87.2373 22.356C86.2293 21.712 85.4593 20.816 84.9273 19.668C84.4046 18.5107 84.1433 17.1713 84.1433 15.65C84.1433 14.1567 84.4093 12.8313 84.9413 11.674C85.4733 10.5167 86.22 9.60667 87.1813 8.944C88.1426 8.28133 89.2766 7.95 90.5833 7.95C91.8246 7.95 92.8933 8.244 93.7893 8.832C94.6853 9.41067 95.3713 10.2413 95.8473 11.324C96.3326 12.3973 96.5753 13.6807 96.5753 15.174C96.5753 15.426 96.5706 15.664 96.5613 15.888C96.552 16.1027 96.538 16.294 96.5193 16.462H86.6073ZM90.6113 9.882C89.5193 9.882 88.6046 10.2693 87.8673 11.044C87.1393 11.8187 86.724 13.018 86.6213 14.642H94.3073C94.2793 13.0647 93.934 11.8793 93.2713 11.086C92.6086 10.2833 91.722 9.882 90.6113 9.882ZM113.84 8.258L108.478 23H105.748L100.428 8.258H102.92L107.19 20.858L111.404 8.258H113.84ZM148.5 3.764L163.466 13.018V15.426L152.84 22.076L151.566 20.34L161.45 14.236L147.366 5.542L148.5 3.764ZM138.476 25.884L136.572 25.044L148.556 0.333999L150.432 1.258L138.476 25.884Z" fill="white"/>
</svg>
